<?xml version="1.0" standalone="no"?>
<!DOCTYPE svg PUBLIC "-//W3C//DTD SVG 20010904//EN"
 "http://www.w3.org/TR/2001/REC-SVG-20010904/DTD/svg10.dtd">
<svg version="1.0" xmlns="http://www.w3.org/2000/svg"
 width="1024.000000pt" height="1024.000000pt" viewBox="0 0 1024.000000 1024.000000"
 preserveAspectRatio="xMidYMid meet">
<metadata>
Created by potrace 1.16, written by Peter Selinger 2001-2019
</metadata>
<style>
  .fill-black {
    fill: black;
    animation: fillGreen 5s forwards;
  }
  @keyframes fillGreen {
    to {
      fill: green;
    }
  }
</style>
<g transform="translate(0.000000,1024.000000) scale(0.100000,-0.100000)"
fill="#000000" stroke="none">
<path class="fill-black" d="M4910 8544 c-208 -13 -506 -60 -685 -110 -246 -68 -570 -207 -784
-338 -188 -115 -390 -283 -477 -396 -30 -39 -56 -59 -119 -90 -134 -67 -295
-223 -485 -471 -471 -615 -701 -1286 -701 -2049 0 -543 102 -990 332 -1449
217 -434 528 -802 993 -1174 92 -74 113 -87 145 -87 73 1 121 53 121 132 0 60
-24 89 -189 225 -153 127 -407 382 -511 513 -256 323 -440 696 -540 1097 l-33
131 182 194 c260 274 305 316 372 348 105 49 235 48 338 -5 27 -13 156 -126
306 -267 273 -255 718 -664 1090 -1003 120 -110 374 -345 563 -522 223 -209
359 -329 388 -342 74 -35 138 -45 207 -31 78 15 3 -24 817 423 91 50 289 160
440 245 403 227 434 242 492 242 127 0 192 -94 139 -198 -41 -80 -28 -71 -910
-633 -316 -202 -633 -409 -705 -460 -111 -79 -186 -148 -481 -441 -192 -190
-346 -350 -342 -354 13 -13 378 -17 522 -5 475 39 814 130 1196 321 507 254
1003 684 1342 1163 355 501 553 1031 607 1625 16 170 8 625 -14 775 -37 257
-100 503 -187 731 -198 521 -694 1177 -1009 1336 -25 12 -90 66 -146 120 -354
340 -884 615 -1415 734 -228 51 -627 83 -859 70z m555 -289 c195 -26 401 -74
544 -126 l35 -12 -47 -14 c-52 -15 -190 -104 -250 -161 -22 -21 -58 -62 -82
-93 l-44 -56 -83 18 c-198 43 -522 49 -758 14 -204 -31 -179 -34 -225 30 -76
108 -202 202 -328 246 -43 15 -75 29 -70 32 21 12 179 57 283 80 99 22 269 46
430 61 96 9 480 -4 595 -19z m-1425 -334 c36 -11 93 -37 128 -58 58 -36 162
-126 162 -141 0 -4 -49 -31 -110 -59 -413 -193 -762 -512 -998 -912 l-55 -95
-44 49 c-86 95 -119 200 -110 356 18 308 181 578 456 758 92 59 200 106 283
121 77 13 213 4 288 -19z m2427 4 c214 -41 492 -249 612 -460 133 -231 159
-512 65 -686 -29 -52 -94 -120 -100 -104 -3 6 -44 71 -92 145 -225 345 -554
641 -909 819 -54 27 -108 52 -120 55 -36 11 -28 29 38 90 137 128 316 177 506
141z m-1082 -360 c281 -40 496 -121 725 -272 477 -316 783 -759 897 -1298 24
-118 27 -150 27 -350 1 -169 -3 -246 -18 -335 -10 -63 -21 -118 -25 -122 -6
-7 -223 -58 -246 -58 -10 0 -8 18 6 73 32 121 49 236 56 372 22 492 -173 956
-550 1310 -136 128 -255 211 -412 290 -147 73 -267 115 -423 147 -144 30 -469
32 -607 5 -461 -91 -852 -353 -1116 -746 -120 -178 -187 -327 -238 -528 -40
-162 -55 -311 -49 -503 l5 -156 -106 -26 c-58 -14 -108 -24 -109 -23 -10 9
-21 158 -21 285 -1 298 62 573 194 845 108 221 227 388 403 562 298 295 674
478 1088 532 112 14 409 12 519 -4z m-2618 -382 c-6 -21 -11 -96 -11 -168 0
-104 4 -146 22 -208 22 -78 67 -178 104 -229 11 -16 17 -28 14 -28 -3 0 12
-16 34 -36 22 -20 37 -40 34 -45 -3 -5 -2 -8 3 -7 5 2 25 -10 45 -27 30 -25
35 -35 31 -57 -3 -16 -10 -25 -16 -21 -5 3 -7 1 -3 -5 3 -6 -6 -54 -21 -106
-27 -91 -29 -96 -55 -96 -18 0 -28 -5 -28 -15 0 -8 -9 -15 -20 -15 -17 0 -20
7 -20 46 0 38 -3 45 -16 40 -9 -3 -27 -6 -40 -6 -23 0 -24 -3 -24 -60 l0 -60
-40 0 c-33 0 -40 3 -40 20 0 11 6 20 13 20 8 0 7 4 -3 10 -21 14 -58 12 -63
-2 -2 -7 -8 -10 -12 -6 -4 4 0 14 9 23 9 9 16 20 16 25 0 5 2 14 5 22 4 10 -5
12 -41 10 -43 -4 -45 -3 -42 19 2 14 9 24 18 23 9 -1 16 6 16 15 0 9 -8 17
-17 17 -9 0 -16 -7 -15 -16 1 -12 -13 -16 -61 -18 l-63 -3 0 -39 c0 -33 3 -40
20 -40 13 0 20 -7 20 -20 0 -19 -19 -26 -59 -21 -8 2 -5 -6 8 -20 11 -12 18
-25 15 -28 -3 -3 -9 1 -13 8 -5 7 -13 11 -19 7 -5 -3 -10 0 -9 7 2 51 -4 67
-23 67 -13 0 -20 7 -20 20 0 16 7 20 33 21 30 0 31 1 10 11 -30 14 -83 -7 -83
-33 0 -12 -7 -19 -20 -19 -13 0 -20 7 -20 20 0 13 7 20 20 20 13 0 20 7 20 20
0 13 -7 20 -20 20 -13 0 -20 -7 -20 -20 0 -13 -7 -20 -20 -20 -13 0 -20 7 -20
20 0 17 -6 19 -40 17 -39 -2 -58 -17 -21 -17 10 0 30 -11 45 -25 l27 -25 -26
-12 c-14 -6 -25 -16 -24 -22 1 -6 1 -21 0 -33 -2 -46 -80 -20 -81 27 0 27 -21
41 -39 27 -12 -10 -14 -9 -7 8 5 11 15 39 23 63 8 23 19 42 25 42 5 0 7 4 3 9
-8 14 16 61 28 54 6 -3 7 -1 3 5 -6 10 116 269 133 282 3 3 17 25 30 50 48 89
183 280 193 273 6 -3 8 -2 5 4 -4 6 10 33 31 60 35 46 181 213 188 213 1 0 -3
-17 -9 -37z m4750 -58 c76 -89 209 -258 240 -308 13 -21 21 -43 17 -49 -4 -6
-3 -8 3 -5 13 8 37 -25 107 -150 35 -61 55 -107 50 -115 -4 -7 -4 -10 1 -6 11
11 48 -51 41 -69 -3 -8 -2 -12 3 -9 19 12 156 -330 144 -360 -4 -11 -3 -15 4
-11 8 5 7 -1 0 -18 -10 -20 -19 -25 -49 -25 -35 0 -38 -2 -38 -30 0 -24 -4
-30 -21 -30 -16 0 -20 5 -16 20 4 14 0 20 -11 20 -15 0 -15 2 -2 10 8 5 11 10
5 10 -5 0 -17 -5 -25 -10 -10 -6 -11 -10 -2 -10 6 0 12 -4 12 -10 0 -5 -13
-10 -30 -10 -29 0 -30 2 -31 48 -1 26 -1 64 0 85 2 29 -2 37 -15 37 -10 0 -26
-7 -36 -17 -19 -17 -25 -53 -8 -53 6 0 10 7 10 15 0 13 3 13 20 3 14 -9 16
-14 7 -20 -9 -6 -8 -8 2 -8 8 0 11 -3 8 -6 -4 -4 -13 -1 -22 6 -12 10 -15 10
-15 -4 0 -25 -17 -19 -24 9 -8 32 -56 37 -56 5 0 -11 4 -20 9 -20 5 0 7 -9 4
-20 -3 -11 -11 -20 -18 -20 -8 0 -11 16 -9 53 2 45 2 47 -5 17 l-8 -35 -2 45
c-2 25 -4 53 -6 63 -2 9 2 17 8 17 7 0 6 5 -3 10 -13 9 -13 11 -1 19 10 7 7 9
-11 8 -27 -2 -32 -32 -7 -48 12 -7 12 -9 -1 -9 -13 0 -13 -1 0 -11 13 -9 13
-10 0 -6 -8 2 -15 10 -15 18 0 8 -11 16 -24 17 -21 3 -23 0 -19 -22 3 -14 1
-26 -3 -26 -17 0 -9 -15 14 -25 18 -8 21 -17 19 -48 -2 -21 2 -37 8 -37 5 0
10 9 10 20 0 11 4 20 9 20 9 0 21 -34 21 -60 0 -13 -1 -13 -10 0 -8 13 -10 12
-10 -2 0 -10 5 -18 10 -18 6 0 10 -9 10 -20 0 -18 -14 -24 -46 -19 -4 0 -11
-5 -15 -13 -5 -7 -9 -8 -9 -2 0 6 -10 10 -22 9 -13 -1 -15 0 -5 2 24 6 21 18
-8 31 -38 18 -95 15 -95 -3 0 -18 -45 -38 -69 -32 -10 3 -8 5 7 6 19 1 22 7
22 41 0 22 5 40 10 40 6 0 10 9 10 20 0 24 8 25 34 5 27 -20 106 -20 106 0 0
8 -9 15 -20 15 -13 0 -20 7 -20 20 0 13 -7 20 -20 20 -13 0 -20 -7 -20 -20 0
-20 -24 -28 -34 -11 -3 4 -20 12 -38 16 -18 4 -27 9 -20 12 6 2 12 13 12 24 0
25 -30 25 -37 -1 -5 -19 -23 -29 -23 -12 0 4 -9 8 -20 8 -15 0 -19 -5 -14 -16
14 -34 16 -50 5 -50 -6 0 -11 7 -11 15 0 19 -19 20 -26 1 -8 -20 -34 -8 -34
15 0 12 -7 19 -20 19 -16 0 -20 7 -20 35 0 28 -4 35 -20 35 -14 0 -20 -7 -21
-22 -1 -13 -2 -30 -3 -40 -1 -9 -4 -19 -8 -23 -4 -4 -6 6 -4 21 1 16 -4 39
-11 51 -9 13 -10 23 -4 27 5 4 12 -1 14 -9 4 -11 4 -10 3 2 -1 10 -8 18 -16
18 -8 0 -15 7 -16 15 -1 16 -7 35 -31 92 -8 20 -12 42 -8 49 6 8 4 10 -5 4
-10 -6 -12 -3 -8 13 4 12 3 20 -1 17 -5 -2 -13 7 -19 20 -9 19 -8 26 3 32 8 5
42 35 76 68 35 33 59 53 54 45 -4 -8 -4 -12 0 -7 5 4 10 14 11 22 1 7 16 34
34 59 48 71 89 165 106 247 18 85 14 311 -6 351 -15 28 -10 23 77 -77z m-2135
-56 c446 -82 834 -382 1038 -804 26 -55 59 -136 73 -181 27 -84 67 -277 67
-320 l0 -24 -135 0 c-147 0 -190 -10 -219 -51 -23 -33 -20 -73 8 -106 l24 -28
162 -3 162 -3 -7 -57 c-19 -157 -94 -417 -123 -426 -9 -3 -60 -15 -112 -26
-229 -50 -489 -160 -686 -291 -136 -90 -325 -276 -403 -395 l-53 -82 -116 53
c-65 29 -170 78 -236 108 l-119 55 -31 85 c-36 95 -78 157 -139 206 -34 28
-531 281 -551 281 -3 0 -6 -13 -6 -28 0 -62 94 -172 285 -335 65 -56 127 -116
137 -132 19 -34 41 -127 63 -275 8 -52 19 -112 25 -132 15 -52 55 -96 100
-109 79 -24 156 48 147 138 l-4 42 46 -40 c50 -44 246 -179 261 -179 5 0 -2
-39 -15 -87 -31 -113 -51 -233 -60 -355 l-7 -98 -47 43 c-203 183 -977 890
-1146 1047 -246 228 -397 366 -514 470 l-83 74 123 18 c139 21 249 19 295 -5
78 -40 96 -75 175 -325 43 -138 68 -180 120 -207 79 -42 159 14 159 111 0 45
-73 318 -107 399 -36 88 -94 158 -176 216 -78 55 -81 60 -92 167 l-7 70 154 4
c126 2 159 6 181 21 50 33 47 101 -6 141 -25 19 -45 21 -178 25 -172 4 -157
-10 -134 127 48 279 172 534 362 744 354 393 827 554 1345 459z m1888 -2088
c0 -17 -159 -206 -237 -282 -162 -158 -320 -252 -588 -350 -223 -82 -297 -110
-350 -134 -16 -7 -73 -27 -125 -45 -243 -82 -537 -276 -665 -439 -26 -34 -49
-61 -50 -61 -1 0 2 23 7 51 73 400 338 734 731 919 156 74 291 114 592 176
305 62 579 132 683 173 1 1 2 -3 2 -8z m-1329 -1006 c0 -6 -10 -13 -23 -17
-13 -3 -18 -6 -13 -7 6 -1 -10 -15 -35 -31 -25 -16 -41 -30 -35 -30 5 0 -1 -7
-13 -16 -12 -8 -20 -20 -17 -25 4 -5 2 -9 -4 -9 -17 0 -71 -61 -64 -73 4 -6 0
-8 -9 -5 -8 4 -22 -1 -29 -10 -8 -10 -35 -40 -59 -68 -69 -78 -90 -107 -84
-116 3 -4 -2 -5 -10 -2 -9 3 -16 2 -16 -4 0 -5 -13 -24 -29 -42 -21 -25 -32
-30 -45 -23 -14 7 -6 21 52 93 90 113 261 284 347 348 67 50 87 58 86 37z"/>
<path d="M5075 6983 c-38 -10 -73 -43 -89 -83 -14 -36 -16 -112 -16 -643 0
-553 1 -605 18 -636 48 -95 157 -100 224 -10 18 24 19 56 18 653 0 680 1 664
-55 700 -29 19 -71 27 -100 19z"/>
<path d="M5935 5964 c-16 -10 -77 -54 -135 -99 -58 -45 -184 -143 -280 -217
-96 -74 -242 -190 -325 -256 -92 -75 -159 -122 -173 -122 -15 0 -85 60 -231
199 -115 110 -222 206 -239 215 -104 54 -232 -28 -232 -148 1 -28 6 -61 13
-73 20 -36 627 -653 659 -669 41 -21 125 -22 169 0 22 10 144 128 299 289 145
150 327 337 404 417 267 275 266 273 266 320 0 113 -108 192 -195 144z"/>
<path d="M2575 4676 c-16 -8 -116 -101 -221 -207 -210 -212 -218 -225 -188
-298 31 -77 107 -116 172 -89 39 16 399 390 418 434 15 36 5 95 -23 126 -42
47 -101 59 -158 34z"/>
<path d="M3025 4260 c-11 -4 -111 -100 -222 -212 -193 -194 -203 -206 -203
-242 0 -53 32 -100 86 -126 84 -41 93 -36 316 191 212 215 222 231 199 302
-24 73 -110 115 -176 87z"/>
<path d="M3277 3653 c-110 -109 -205 -212 -213 -229 -18 -43 -4 -91 40 -133
41 -40 106 -52 152 -28 26 14 144 131 337 334 62 65 67 75 67 115 0 82 -59
138 -147 138 -35 0 -49 -12 -236 -197z"/>
<path d="M3920 3439 c-14 -5 -54 -40 -88 -77 -35 -37 -126 -130 -203 -208
-129 -130 -139 -143 -139 -178 0 -46 20 -86 60 -120 25 -21 42 -26 82 -26 l51
0 115 113 c63 61 159 160 213 219 89 97 99 111 99 145 0 97 -100 167 -190 132z"/>
<path d="M4962 2576 c4 -22 1 -25 -39 -31 -23 -3 -43 -10 -43 -16 0 -5 -15 -8
-34 -6 -19 1 -32 6 -29 12 3 6 0 4 -8 -2 -23 -22 -47 -15 -52 15 -2 16 -5 7
-6 -22 l-1 -49 -163 -164 c-157 -158 -163 -163 -203 -163 -45 0 -68 15 -159
104 -152 149 -185 179 -180 164 4 -9 13 -19 21 -22 9 -3 12 -10 9 -16 -4 -6
-11 -8 -16 -5 -5 4 -9 0 -9 -8 0 -10 -17 -16 -57 -20 -31 -3 -59 -10 -62 -15
-14 -21 -56 -21 -81 1 -20 17 -19 15 4 -10 16 -18 34 -30 39 -26 6 3 7 2 4 -4
-7 -11 343 -351 394 -382 44 -27 128 -28 184 -2 22 10 67 47 100 82 33 35 132
140 220 232 88 93 168 185 177 205 25 54 22 172 -4 172 -6 0 -8 -11 -6 -24z"/>
<path d="M4515 2433 c-11 -8 -19 -19 -17 -24 3 -12 -15 -12 -20 0 -1 5 -29 11
-60 13 -54 4 -60 2 -88 -27 -35 -36 -33 -48 16 -89 l35 -29 39 38 c22 21 36
43 33 48 -3 6 -2 7 4 4 5 -3 27 12 48 33 40 41 45 60 10 33z"/>
</g>
</svg>
